<mxfile host="app.diagrams.net" agent="Mozilla/5.0 (Windows NT 10.0; Win64; x64) AppleWebKit/537.36 (KHTML, like Gecko) Chrome/134.0.0.0 Safari/537.36" version="26.1.1">
  <diagram name="Page-1" id="EKJ2kd4RgJoKmwQdWKdD">
    <mxGraphModel dx="2125" dy="921" grid="1" gridSize="10" guides="1" tooltips="1" connect="1" arrows="1" fold="1" page="1" pageScale="1" pageWidth="850" pageHeight="1100" math="0" shadow="0">
      <root>
        <mxCell id="0" />
        <mxCell id="1" parent="0" />
        <mxCell id="Tq5oZfDXVqdwf5hRAxe_-3" value="&lt;div style=&quot;direction: ltr;&quot;&gt;&lt;span style=&quot;font-size: 20px; background-color: transparent; color: light-dark(rgb(0, 0, 0), rgb(255, 255, 255));&quot;&gt;防&lt;/span&gt;&lt;/div&gt;&lt;div style=&quot;direction: ltr;&quot;&gt;&lt;font style=&quot;font-size: 20px;&quot;&gt;火&lt;/font&gt;&lt;/div&gt;&lt;div style=&quot;direction: ltr;&quot;&gt;&lt;font style=&quot;font-size: 20px;&quot;&gt;墙&lt;/font&gt;&lt;/div&gt;&lt;div style=&quot;direction: ltr;&quot;&gt;&lt;font style=&quot;font-size: 20px;&quot;&gt;&lt;br&gt;&lt;/font&gt;&lt;/div&gt;&lt;div style=&quot;direction: ltr;&quot;&gt;&lt;font style=&quot;font-size: 20px;&quot;&gt;&lt;br&gt;&lt;/font&gt;&lt;/div&gt;&lt;div style=&quot;direction: ltr;&quot;&gt;&lt;font style=&quot;font-size: 20px;&quot;&gt;&lt;br&gt;&lt;/font&gt;&lt;/div&gt;&lt;div style=&quot;direction: ltr;&quot;&gt;&lt;font style=&quot;font-size: 20px;&quot;&gt;&lt;br&gt;&lt;/font&gt;&lt;/div&gt;&lt;div style=&quot;direction: ltr;&quot;&gt;&lt;font style=&quot;font-size: 20px;&quot;&gt;&lt;br&gt;&lt;/font&gt;&lt;/div&gt;&lt;div style=&quot;direction: ltr;&quot;&gt;&lt;font style=&quot;font-size: 20px;&quot;&gt;&lt;br&gt;&lt;/font&gt;&lt;/div&gt;&lt;div style=&quot;direction: ltr;&quot;&gt;&lt;font style=&quot;font-size: 20px;&quot;&gt;&lt;br&gt;&lt;/font&gt;&lt;/div&gt;&lt;div style=&quot;direction: ltr;&quot;&gt;&lt;font style=&quot;font-size: 20px;&quot;&gt;&lt;br&gt;&lt;/font&gt;&lt;/div&gt;&lt;div style=&quot;direction: ltr;&quot;&gt;&lt;font style=&quot;font-size: 20px;&quot;&gt;&lt;br&gt;&lt;/font&gt;&lt;/div&gt;&lt;div style=&quot;direction: ltr;&quot;&gt;&lt;font style=&quot;font-size: 20px;&quot;&gt;&lt;br&gt;&lt;/font&gt;&lt;/div&gt;&lt;div style=&quot;direction: ltr;&quot;&gt;&lt;font style=&quot;font-size: 20px;&quot;&gt;&lt;br&gt;&lt;/font&gt;&lt;/div&gt;&lt;div style=&quot;direction: ltr;&quot;&gt;&lt;font style=&quot;font-size: 20px;&quot;&gt;&lt;br&gt;&lt;/font&gt;&lt;/div&gt;&lt;div style=&quot;direction: ltr;&quot;&gt;&lt;font style=&quot;font-size: 20px;&quot;&gt;&lt;br&gt;&lt;/font&gt;&lt;/div&gt;&lt;div style=&quot;direction: ltr;&quot;&gt;&lt;font style=&quot;font-size: 20px;&quot;&gt;&lt;br&gt;&lt;/font&gt;&lt;/div&gt;&lt;div style=&quot;direction: ltr;&quot;&gt;&lt;font style=&quot;font-size: 20px;&quot;&gt;&lt;br&gt;&lt;/font&gt;&lt;/div&gt;" style="rounded=1;whiteSpace=wrap;html=1;fillColor=#f8cecc;strokeColor=#b85450;align=center;" vertex="1" parent="1">
          <mxGeometry x="40" y="280" width="40" height="460" as="geometry" />
        </mxCell>
        <mxCell id="fo_Kurq_kEMjWYs5cq_H-46" style="edgeStyle=orthogonalEdgeStyle;rounded=0;orthogonalLoop=1;jettySize=auto;html=1;entryX=0.005;entryY=0.63;entryDx=0;entryDy=0;entryPerimeter=0;strokeWidth=3;" parent="1" edge="1" source="Tq5oZfDXVqdwf5hRAxe_-1">
          <mxGeometry relative="1" as="geometry">
            <mxPoint x="-363.4100000000001" y="509.7099999999999" as="sourcePoint" />
            <Array as="points">
              <mxPoint x="-201.40999999999997" y="509.7099999999999" />
            </Array>
            <mxPoint x="-160.94119999999987" y="509.4100000000002" as="targetPoint" />
          </mxGeometry>
        </mxCell>
        <mxCell id="Tq5oZfDXVqdwf5hRAxe_-9" style="edgeStyle=orthogonalEdgeStyle;rounded=0;orthogonalLoop=1;jettySize=auto;html=1;strokeWidth=3;" edge="1" parent="1" source="fo_Kurq_kEMjWYs5cq_H-51">
          <mxGeometry relative="1" as="geometry">
            <mxPoint x="-210" y="520" as="targetPoint" />
          </mxGeometry>
        </mxCell>
        <mxCell id="fo_Kurq_kEMjWYs5cq_H-51" value="" style="points=[[0.03,0.03,0],[0.5,0,0],[0.97,0.03,0],[1,0.4,0],[0.97,0.745,0],[0.5,1,0],[0.03,0.745,0],[0,0.4,0]];verticalLabelPosition=bottom;sketch=0;html=1;verticalAlign=top;aspect=fixed;align=center;pointerEvents=1;shape=mxgraph.cisco19.workstation;fillColor=#005073;strokeColor=none;" parent="1" vertex="1">
          <mxGeometry x="-469.00000000000006" y="485" width="87.5" height="70" as="geometry" />
        </mxCell>
        <mxCell id="fo_Kurq_kEMjWYs5cq_H-55" value="&lt;font style=&quot;font-size: 20px;&quot;&gt;Endpoint&lt;/font&gt;" style="rounded=1;whiteSpace=wrap;html=1;strokeColor=#FFFFFF;" parent="1" vertex="1">
          <mxGeometry x="-478" y="567.5" width="105.68" height="40" as="geometry" />
        </mxCell>
        <mxCell id="Tq5oZfDXVqdwf5hRAxe_-2" value="&lt;font style=&quot;font-size: 20px;&quot;&gt;*.trendmicro.com&lt;/font&gt;" style="rounded=1;whiteSpace=wrap;html=1;" vertex="1" parent="1">
          <mxGeometry x="220" y="380" width="170" height="280" as="geometry" />
        </mxCell>
        <mxCell id="Tq5oZfDXVqdwf5hRAxe_-10" style="edgeStyle=orthogonalEdgeStyle;rounded=0;orthogonalLoop=1;jettySize=auto;html=1;entryX=0;entryY=0.5;entryDx=0;entryDy=0;strokeColor=default;strokeWidth=3;" edge="1" parent="1" source="Tq5oZfDXVqdwf5hRAxe_-1" target="Tq5oZfDXVqdwf5hRAxe_-2">
          <mxGeometry relative="1" as="geometry" />
        </mxCell>
        <mxCell id="Tq5oZfDXVqdwf5hRAxe_-1" value="&lt;font style=&quot;font-size: 20px;&quot;&gt;Squid&lt;/font&gt;" style="rounded=1;whiteSpace=wrap;html=1;" vertex="1" parent="1">
          <mxGeometry x="-210" y="493.75" width="120" height="52.5" as="geometry" />
        </mxCell>
      </root>
    </mxGraphModel>
  </diagram>
</mxfile>
